<svg xmlns="http://www.w3.org/2000/svg" xmlns:xlink="http://www.w3.org/1999/xlink" viewBox="0 0 1934 1078.622"><defs><style>.a{opacity:0.7;fill:url(#a);}.b,.c{fill:#ebebeb;}.b{opacity:0.05;}.c{opacity:0.11;}.d{filter:url(#ar);}.e{filter:url(#ap);}.f{filter:url(#an);}.g{filter:url(#al);}.h{filter:url(#aj);}.i{filter:url(#ah);}.j{filter:url(#af);}.k{filter:url(#ad);}.l{filter:url(#ab);}.m{filter:url(#z);}.n{filter:url(#x);}.o{filter:url(#v);}.p{filter:url(#t);}.q{filter:url(#r);}.r{filter:url(#p);}.s{filter:url(#n);}.t{filter:url(#l);}.u{filter:url(#j);}.v{filter:url(#h);}.w{filter:url(#f);}.x{filter:url(#d);}.y{filter:url(#b);}</style><linearGradient id="a" x1="1" y1="1" x2="0" gradientUnits="objectBoundingBox"><stop offset="0" stop-color="#ff5f6d"/><stop offset="0.502" stop-color="#f06850"/><stop offset="1" stop-color="#ecc8c2"/></linearGradient><filter id="b" x="1725" y="40" width="209" height="400.001" filterUnits="userSpaceOnUse"><feOffset dx="-2" dy="3" input="SourceAlpha"/><feGaussianBlur stdDeviation="3" result="c"/><feFlood flood-opacity="0.161"/><feComposite operator="in" in2="c"/><feComposite in="SourceGraphic"/></filter><filter id="d" x="1749" y="64" width="185" height="352.001" filterUnits="userSpaceOnUse"><feOffset dx="-2" dy="3" input="SourceAlpha"/><feGaussianBlur stdDeviation="3" result="e"/><feFlood flood-opacity="0.161"/><feComposite operator="in" in2="e"/><feComposite in="SourceGraphic"/></filter><filter id="f" x="1716" y="452.871" width="218" height="218" filterUnits="userSpaceOnUse"><feOffset dx="-2" dy="3" input="SourceAlpha"/><feGaussianBlur stdDeviation="3" result="g"/><feFlood flood-opacity="0.161"/><feComposite operator="in" in2="g"/><feComposite in="SourceGraphic"/></filter><filter id="h" x="1728.565" y="465.44" width="192.869" height="192.869" filterUnits="userSpaceOnUse"><feOffset dx="-2" dy="3" input="SourceAlpha"/><feGaussianBlur stdDeviation="3" result="i"/><feFlood flood-opacity="0.161"/><feComposite operator="in" in2="i"/><feComposite in="SourceGraphic"/></filter><filter id="j" x="0" y="79" width="278" height="278" filterUnits="userSpaceOnUse"><feOffset dx="2" dy="3" input="SourceAlpha"/><feGaussianBlur stdDeviation="3" result="k"/><feFlood flood-opacity="0.161"/><feComposite operator="in" in2="k"/><feComposite in="SourceGraphic"/></filter><filter id="l" x="16.335" y="95.335" width="245.33" height="245.33" filterUnits="userSpaceOnUse"><feOffset dx="2" dy="3" input="SourceAlpha"/><feGaussianBlur stdDeviation="3" result="m"/><feFlood flood-opacity="0.161"/><feComposite operator="in" in2="m"/><feComposite in="SourceGraphic"/></filter><filter id="n" x="1769.579" y="715.059" width="140.842" height="140.842" filterUnits="userSpaceOnUse"><feOffset dx="-2" dy="3" input="SourceAlpha"/><feGaussianBlur stdDeviation="3" result="o"/><feFlood flood-opacity="0.161"/><feComposite operator="in" in2="o"/><feComposite in="SourceGraphic"/></filter><filter id="p" x="1777.297" y="722.801" width="125.406" height="125.406" filterUnits="userSpaceOnUse"><feOffset dx="-2" dy="3" input="SourceAlpha"/><feGaussianBlur stdDeviation="3" result="q"/><feFlood flood-opacity="0.161"/><feComposite operator="in" in2="q"/><feComposite in="SourceGraphic"/></filter><filter id="r" x="1521" y="828" width="238" height="238" filterUnits="userSpaceOnUse"><feOffset dx="-2" dy="3" input="SourceAlpha"/><feGaussianBlur stdDeviation="3" result="s"/><feFlood flood-opacity="0.161"/><feComposite operator="in" in2="s"/><feComposite in="SourceGraphic"/></filter><filter id="t" x="1534.822" y="841.822" width="210.356" height="210.356" filterUnits="userSpaceOnUse"><feOffset dx="-2" dy="3" input="SourceAlpha"/><feGaussianBlur stdDeviation="3" result="u"/><feFlood flood-opacity="0.161"/><feComposite operator="in" in2="u"/><feComposite in="SourceGraphic"/></filter><filter id="v" x="33" y="390.577" width="116" height="116" filterUnits="userSpaceOnUse"><feOffset dx="2" dy="3" input="SourceAlpha"/><feGaussianBlur stdDeviation="3" result="w"/><feFlood flood-opacity="0.161"/><feComposite operator="in" in2="w"/><feComposite in="SourceGraphic"/></filter><filter id="x" x="39.157" y="396.727" width="103.686" height="103.686" filterUnits="userSpaceOnUse"><feOffset dx="2" dy="3" input="SourceAlpha"/><feGaussianBlur stdDeviation="3" result="y"/><feFlood flood-opacity="0.161"/><feComposite operator="in" in2="y"/><feComposite in="SourceGraphic"/></filter><filter id="z" x="336.632" y="96.632" width="58.737" height="58.737" filterUnits="userSpaceOnUse"><feOffset dx="2" dy="3" input="SourceAlpha"/><feGaussianBlur stdDeviation="3" result="aa"/><feFlood flood-opacity="0.161"/><feComposite operator="in" in2="aa"/><feComposite in="SourceGraphic"/></filter><filter id="ab" x="339.191" y="99.191" width="53.618" height="53.618" filterUnits="userSpaceOnUse"><feOffset dx="2" dy="3" input="SourceAlpha"/><feGaussianBlur stdDeviation="3" result="ac"/><feFlood flood-opacity="0.161"/><feComposite operator="in" in2="ac"/><feComposite in="SourceGraphic"/></filter><filter id="ad" x="357" y="160.98" width="116" height="116" filterUnits="userSpaceOnUse"><feOffset dx="2" dy="3" input="SourceAlpha"/><feGaussianBlur stdDeviation="3" result="ae"/><feFlood flood-opacity="0.161"/><feComposite operator="in" in2="ae"/><feComposite in="SourceGraphic"/></filter><filter id="af" x="363.157" y="167.112" width="103.686" height="103.686" filterUnits="userSpaceOnUse"><feOffset dx="2" dy="3" input="SourceAlpha"/><feGaussianBlur stdDeviation="3" result="ag"/><feFlood flood-opacity="0.161"/><feComposite operator="in" in2="ag"/><feComposite in="SourceGraphic"/></filter><filter id="ah" x="526" y="77" width="78" height="78" filterUnits="userSpaceOnUse"><feOffset dx="2" dy="3" input="SourceAlpha"/><feGaussianBlur stdDeviation="3" result="ai"/><feFlood flood-opacity="0.161"/><feComposite operator="in" in2="ai"/><feComposite in="SourceGraphic"/></filter><filter id="aj" x="529.77" y="80.77" width="70.461" height="70.461" filterUnits="userSpaceOnUse"><feOffset dx="2" dy="3" input="SourceAlpha"/><feGaussianBlur stdDeviation="3" result="ak"/><feFlood flood-opacity="0.161"/><feComposite operator="in" in2="ak"/><feComposite in="SourceGraphic"/></filter><filter id="al" x="96" y="599.037" width="182" height="182" filterUnits="userSpaceOnUse"><feOffset dx="2" dy="3" input="SourceAlpha"/><feGaussianBlur stdDeviation="3" result="am"/><feFlood flood-opacity="0.161"/><feComposite operator="in" in2="am"/><feComposite in="SourceGraphic"/></filter><filter id="an" x="106.303" y="609.362" width="161.393" height="161.393" filterUnits="userSpaceOnUse"><feOffset dx="2" dy="3" input="SourceAlpha"/><feGaussianBlur stdDeviation="3" result="ao"/><feFlood flood-opacity="0.161"/><feComposite operator="in" in2="ao"/><feComposite in="SourceGraphic"/></filter><filter id="ap" x="0.415" y="809.452" width="269.171" height="269.17" filterUnits="userSpaceOnUse"><feOffset dx="2" dy="3" input="SourceAlpha"/><feGaussianBlur stdDeviation="3" result="aq"/><feFlood flood-opacity="0.161"/><feComposite operator="in" in2="aq"/><feComposite in="SourceGraphic"/></filter><filter id="ar" x="16.195" y="825.264" width="237.61" height="237.61" filterUnits="userSpaceOnUse"><feOffset dx="2" dy="3" input="SourceAlpha"/><feGaussianBlur stdDeviation="3" result="as"/><feFlood flood-opacity="0.161"/><feComposite operator="in" in2="as"/><feComposite in="SourceGraphic"/></filter></defs><g transform="translate(7)"><rect class="a" width="1920" height="1074"/><g class="y" transform="matrix(1, 0, 0, 1, -7, 0)"><path class="b" d="M191,429h0a192.412,192.412,0,0,1-38.493-3.88,189.955,189.955,0,0,1-68.3-28.739,191.557,191.557,0,0,1-69.2-84.035A190.044,190.044,0,0,1,3.88,276.493a192.865,192.865,0,0,1,0-76.987,189.957,189.957,0,0,1,28.739-68.3,191.557,191.557,0,0,1,84.034-69.2A190.039,190.039,0,0,1,152.507,50.88,192.412,192.412,0,0,1,191,47V429Z" transform="translate(1736 -1)"/></g><g class="x" transform="matrix(1, 0, 0, 1, -7, 0)"><path class="c" d="M167,405h0a168.233,168.233,0,0,1-33.656-3.393,166.088,166.088,0,0,1-59.715-25.128A167.488,167.488,0,0,1,13.124,303a166.161,166.161,0,0,1-9.731-31.348,168.629,168.629,0,0,1,0-67.313,166.085,166.085,0,0,1,25.128-59.715A167.487,167.487,0,0,1,102,84.124a166.157,166.157,0,0,1,31.348-9.731A168.236,168.236,0,0,1,167,71V405Z" transform="translate(1760 -1)"/></g><g class="w" transform="matrix(1, 0, 0, 1, -7, 0)"><circle class="b" cx="100" cy="100" r="100" transform="translate(1727 458.87)"/></g><g class="v" transform="matrix(1, 0, 0, 1, -7, 0)"><path class="c" d="M87.435,0A87.435,87.435,0,1,1,0,87.435,87.435,87.435,0,0,1,87.435,0Z" transform="translate(1739.57 471.44)"/></g><g class="u" transform="matrix(1, 0, 0, 1, -7, 0)"><circle class="b" cx="130" cy="130" r="130" transform="translate(7 85)"/></g><g class="t" transform="matrix(1, 0, 0, 1, -7, 0)"><path class="c" d="M113.665,0A113.665,113.665,0,1,1,0,113.665,113.665,113.665,0,0,1,113.665,0Z" transform="translate(23.34 101.34)"/></g><g class="s" transform="matrix(1, 0, 0, 1, -7, 0)"><path class="b" d="M61.421,0A61.421,61.421,0,1,1,0,61.421,61.421,61.421,0,0,1,61.421,0Z" transform="translate(1780.58 721.06)"/></g><g class="r" transform="matrix(1, 0, 0, 1, -7, 0)"><path class="c" d="M53.7,0A53.7,53.7,0,1,1,0,53.7,53.7,53.7,0,0,1,53.7,0Z" transform="translate(1788.3 728.8)"/></g><g class="q" transform="matrix(1, 0, 0, 1, -7, 0)"><circle class="b" cx="110" cy="110" r="110" transform="translate(1532 834)"/></g><g class="p" transform="matrix(1, 0, 0, 1, -7, 0)"><path class="c" d="M96.178,0A96.178,96.178,0,1,1,0,96.178,96.178,96.178,0,0,1,96.178,0Z" transform="translate(1545.82 847.82)"/></g><g class="o" transform="matrix(1, 0, 0, 1, -7, 0)"><circle class="b" cx="49" cy="49" r="49" transform="translate(40 396.58)"/></g><g class="n" transform="matrix(1, 0, 0, 1, -7, 0)"><path class="c" d="M42.843,0A42.843,42.843,0,1,1,0,42.843,42.843,42.843,0,0,1,42.843,0Z" transform="translate(46.16 402.73)"/></g><g class="m" transform="matrix(1, 0, 0, 1, -7, 0)"><circle class="b" cx="20.368" cy="20.368" r="20.368" transform="translate(343.63 102.63)"/></g><g class="l" transform="matrix(1, 0, 0, 1, -7, 0)"><circle class="c" cx="17.809" cy="17.809" r="17.809" transform="translate(346.19 105.19)"/></g><g class="k" transform="matrix(1, 0, 0, 1, -7, 0)"><circle class="b" cx="49" cy="49" r="49" transform="translate(364 166.98)"/></g><g class="j" transform="matrix(1, 0, 0, 1, -7, 0)"><path class="c" d="M42.843,0A42.843,42.843,0,1,1,0,42.843,42.843,42.843,0,0,1,42.843,0Z" transform="translate(370.16 173.11)"/></g><g class="i" transform="matrix(1, 0, 0, 1, -7, 0)"><circle class="b" cx="30" cy="30" r="30" transform="translate(533 83)"/></g><g class="h" transform="matrix(1, 0, 0, 1, -7, 0)"><path class="c" d="M26.23,0A26.23,26.23,0,1,1,0,26.23,26.23,26.23,0,0,1,26.23,0Z" transform="translate(536.77 86.77)"/></g><g class="g" transform="matrix(1, 0, 0, 1, -7, 0)"><path class="b" d="M82,0A82,82,0,1,1,0,82,82,82,0,0,1,82,0Z" transform="translate(103 605.04)"/></g><g class="f" transform="matrix(1, 0, 0, 1, -7, 0)"><circle class="c" cx="71.696" cy="71.696" r="71.696" transform="translate(113.3 615.36)"/></g><g transform="translate(-95.585 210.415)"><g class="e" transform="matrix(1, 0, 0, 1, 88.59, -210.41)"><circle class="b" cx="125.585" cy="125.585" r="125.585" transform="translate(7.41 815.45)"/></g><g class="d" transform="matrix(1, 0, 0, 1, 88.59, -210.41)"><path class="c" d="M109.8,0A109.8,109.8,0,1,1,0,109.8,109.8,109.8,0,0,1,109.8,0Z" transform="translate(23.19 831.26)"/></g></g></g></svg>