<svg xmlns="http://www.w3.org/2000/svg" width="260" height="60" viewBox="0 0 260 60" isolation="isolate"><style>.a{fill:#fff}.b{fill:#212124}.c{fill:#f06850}</style><g clip-path="url(#_clipPath_wQ9DZSft4nIF6BgMAQrpxILbDVPxfrzs)"><g clip-path="url(#_clipPath_XmrUmRhsqVVFwRWhC8oOus7N6DcsTdD4)"><path d="M31.5 12.4l-5 16.2h-6.7l3.3-10.9-6 10.9h-4.8l.4-10.7-3.3 10.7H2.7l4.9-16.2h10c0 1 0 2.1-.1 3.4l-.2 4.2 4.1-7.6h10.1z" class="b"/></g><g clip-path="url(#_clipPath_b55k3MpkYODv8MIsHZPLwW2tPpsINA0z)"><path d="M40.6 22.8c.2-1.8.5-4.1.9-6.8-1.7 3.1-2.9 5.4-3.5 6.8h2.6zm7.3-10.4l-.6 16.2h-7.8l.4-2.9h-2.7l-1.4 2.9h-8l8.9-16.2h11.2z" class="b"/></g><g clip-path="url(#_clipPath_T76NQS58zkbNaFfpTd5wtz1LB6TJfIS4)"><path d="M67.1 12.4l-1 3.2h-4.6l-4 12.9h-7.7l4-12.9h-4.6l1-3.2h16.9z" class="b"/></g><g clip-path="url(#_clipPath_bSG5HG1q1Ak6KbrnOMNfgsmVTWTmKr7b)"><path d="M84.6 12.4l-1 3.2H79l-3.9 12.9h-7.7l3.9-12.9h-4.5l1-3.2h16.8z" class="b"/></g><g clip-path="url(#_clipPath_gfV2LWY28vekQaMVUsgsw4SeEzEeqnEf)"><path d="M90.5 12.4l-.5 1.4c-.2.8-.6 1.4-1 1.9-.5.5-1.2.9-2.1 1.2-1 .4-1.9.6-3 .7l.4-1.2c.8-.2 1.3-.5 1.5-.9h-1.3l1-3.1h5z" class="b"/></g><g clip-path="url(#_clipPath_HeYvNghjdqEbvEuznFzvNTiC21a49dWb)"><path d="M107.5 17.3h-7.1l.3-1.2c.2-.6.2-.9.1-1.1-.2-.2-.4-.2-.9-.2-.4 0-.8.1-1.1.3-.3.2-.5.5-.7.9-.1.6-.1 1 .1 1.2.1.3.8.6 1.9 1 3 1.1 4.9 2 5.6 2.8.7.7.8 1.8.3 3.4-.4 1.1-.9 2-1.5 2.5-.7.6-1.8 1-3.3 1.4-1.6.4-3.3.6-5.1.6-2.1 0-3.8-.2-5.1-.7-1.4-.4-2.2-.9-2.4-1.6-.3-.6-.2-1.6.2-2.8l.3-1.1h7.2l-.6 2c-.2.6-.2 1-.1 1.2.2.2.5.2 1 .2s.9-.1 1.2-.3c.4-.2.6-.5.7-1 .3-.9.3-1.5-.1-1.8-.4-.3-1.5-.8-3.2-1.5-1.7-.7-2.8-1.2-3.3-1.5-.6-.3-.9-.8-1.2-1.3-.2-.6-.2-1.3.1-2.1.3-1.3.9-2.2 1.7-2.7.7-.6 1.8-1.1 3.2-1.4 1.4-.3 3-.5 4.8-.5 2 0 3.7.2 5 .6 1.3.3 2.1.8 2.4 1.3.3.5.2 1.4-.2 2.7l-.2.7z" class="b"/></g><g clip-path="url(#_clipPath_bnf6m4aEatjEzoNp5NchZZBm8IAp0GFa)"><path d="M134.6 19.4h-7.7l.8-2.8c.3-.8.3-1.3.2-1.5-.1-.2-.4-.3-1-.3s-1 .1-1.3.3c-.2.3-.5.8-.7 1.6l-2.3 7.5c-.3.8-.3 1.3-.2 1.6 0 .2.4.3 1 .3s1-.1 1.2-.3c.3-.3.5-.8.8-1.7l.6-2.1h7.8l-.2.7c-.5 1.6-1.1 2.8-1.8 3.5-.6.7-1.8 1.3-3.4 1.9-1.7.5-3.6.8-5.8.8-2.2 0-4-.3-5.3-.7-1.4-.5-2.1-1.1-2.4-1.9-.2-.7-.1-1.9.4-3.5l1.4-4.7c.4-1.2.7-2.1 1.1-2.7.3-.5.9-1.1 1.8-1.6.9-.6 2-1 3.4-1.3 1.4-.3 2.9-.5 4.6-.5 2.3 0 4.1.3 5.4.7 1.3.5 2.1 1.1 2.4 1.8.2.7.1 1.9-.4 3.4l-.4 1.5z" class="b"/></g><g clip-path="url(#_clipPath_c4iexdsT4RDX6Zke98mvK0jb4ozOURHG)"><path d="M145.6 22.7c.1-1.8.4-4 .9-6.7-1.8 3.1-3 5.3-3.6 6.7h2.7zm7.2-10.3l-.5 16.1h-7.9l.5-2.9h-2.8l-1.3 2.9h-8l8.9-16.1h11.1z" class="b"/></g><g clip-path="url(#_clipPath_PDeyd3mboCNLRKQKkrxAvBdz8mSMtBul)"><path d="M165.4 15.1l-1.1 3.6c.9 0 1.5-.1 1.9-.2.4-.1.7-.5.9-1.2l.3-.9c.1-.6.1-.9-.2-1-.3-.2-.9-.3-1.8-.3zm-6.8-2.7h5.4c3.7 0 6.1 0 7.3.2 1.3.1 2.2.5 2.8 1.1.7.7.8 1.7.3 3.1-.4 1.2-.9 2.1-1.6 2.5-.7.4-1.9.7-3.6.8 1.4.2 2.4.5 2.8.8.4.3.6.7.7 1 0 .2-.2 1-.6 2.3l-1.3 4.3h-7.1l1.6-5.4c.3-.8.3-1.4.1-1.6-.2-.2-.8-.3-1.8-.3l-2.3 7.3h-7.7l5-16.1z" class="b"/></g><g clip-path="url(#_clipPath_q7dGi0g721Llz9ZFQ0sCTL5XZSIPF1Bl)"><path d="M201.2 19.4h-7.7l.9-2.8c.2-.9.3-1.4.2-1.6-.1-.2-.4-.3-1-.3s-1.1.2-1.3.4c-.3.3-.5.8-.8 1.6l-2.3 7.5c-.2.8-.3 1.3-.2 1.5.1.3.5.4 1.1.4.6 0 1-.1 1.2-.4.3-.2.5-.8.8-1.7l.6-2h7.7l-.2.6c-.5 1.7-1 2.9-1.7 3.6-.6.7-1.8 1.3-3.4 1.8-1.7.6-3.6.8-5.8.8-2.2 0-4-.2-5.4-.6-1.3-.5-2.1-1.1-2.3-1.9-.2-.8-.1-2 .4-3.5l1.4-4.8c.4-1.1.7-2 1-2.6.4-.6 1-1.1 1.9-1.7.9-.5 2-.9 3.4-1.2 1.4-.3 2.9-.5 4.6-.5 2.2 0 4 .2 5.4.7 1.3.5 2.1 1.1 2.3 1.8.3.7.2 1.8-.3 3.3l-.5 1.6z" class="b"/></g><g clip-path="url(#_clipPath_dEU9I54OMbbeeHgGlpN2IWtpd9O3eZvB)"><path d="M212.2 22.7c.2-1.8.5-4.1.9-6.8-1.7 3.1-2.9 5.4-3.5 6.8h2.6zm7.3-10.4l-.5 16.2h-7.9l.5-2.9h-2.8l-1.4 2.9h-7.9l8.9-16.2h11.1z" class="b"/></g><g clip-path="url(#_clipPath_SIlxkR4Ffil6yQkCH7foom1LBKgpMx3U)"><path d="M232.1 15.1l-1.1 3.6c.9 0 1.5-.1 1.9-.2.4-.1.7-.6.9-1.3l.3-.9c.1-.5.1-.8-.2-1-.3-.1-.9-.2-1.8-.2zm-6.9-2.8h5.5c3.6 0 6.1.1 7.3.3 1.3.1 2.2.5 2.8 1.1.6.7.7 1.7.3 3-.4 1.3-.9 2.1-1.6 2.6-.7.4-1.9.7-3.7.7 1.5.3 2.4.5 2.9.9.4.3.6.6.7.9 0 .3-.2 1.1-.6 2.4l-1.3 4.3h-7.2l1.7-5.4c.3-.9.3-1.4.1-1.6-.2-.2-.8-.3-1.9-.3l-2.2 7.3h-7.7l4.9-16.2z" class="b"/></g><g clip-path="url(#_clipPath_EJLUTLujwvINQXxxESYafbIXVk2r5Bgm)"><path d="M245.5 12.3h12.8l-1 3.2h-5.1l-1 3.1h4.9l-1 3.1h-4.8l-1.1 3.5h5.7l-1 3.3h-13.4l5-16.2z" class="b"/></g><g clip-path="url(#_clipPath_NQxTOyQBovtjVpG3OgXwcSItkPnKkwjd)"><path d="M31.2 12.4l-4.4 16.2H20l3-10.9-5.6 10.9h-4.8V17.9L9.7 28.6H3l4.4-16.2h9.9c.1 1 .1 2.1 0 3.4V20l3.8-7.6h10.1z" class="b"/></g><g clip-path="url(#_clipPath_HoaLWYQui77ZV6LBZFnI94GqSGDgeRam)"><path d="M40.7 22.8c.1-1.8.3-4.1.7-6.8-1.7 3.1-2.8 5.4-3.4 6.8h2.7zm6.9-10.4v16.2h-7.8l.3-2.9h-2.7l-1.3 2.9h-8l8.3-16.2h11.2z" class="b"/></g><g clip-path="url(#_clipPath_nwnDoKTx1kfYH6SkgU08sQ9DDf9IjcxO)"><path d="M66.8 12.4l-.9 3.2h-4.6l-3.5 12.9h-7.7l3.5-12.9h-4.5l.8-3.2h16.9z" class="b"/></g><g clip-path="url(#_clipPath_in6YzyQYYp7dbYdLnLfAKnKQJUX1iAir)"><path d="M84.3 12.4l-.8 3.2h-4.6l-3.5 12.9h-7.7l3.5-12.9h-4.6l.9-3.2h16.8z" class="b"/></g><g clip-path="url(#_clipPath_VjUulJwByBXOy8kuLtZ8MQmyS3KlxBts)"><path d="M90.2 12.4l-.4 1.4c-.2.8-.6 1.4-1 1.9-.5.5-1.2.9-2.1 1.2-.9.4-1.9.6-2.9.7l.3-1.2c.8-.2 1.3-.5 1.5-.9h-1.3l.9-3.1h5z" class="b"/></g><g clip-path="url(#_clipPath_ztmG6iJSk10uhkuFyIon1ludcpbD80r6)"><path d="M107.4 17.3h-7.1l.3-1.2c.1-.6.1-.9 0-1.1-.2-.2-.4-.2-.9-.2-.4 0-.8.1-1.1.3-.3.2-.5.5-.6.9-.2.6-.1 1 .1 1.2.1.3.8.6 1.9 1 3.1 1.1 5 2 5.7 2.8.7.7.9 1.8.4 3.4-.3 1.1-.8 2-1.4 2.5-.6.6-1.7 1-3.2 1.4-1.6.4-3.3.6-5.1.6-2.1 0-3.8-.2-5.2-.7-1.3-.4-2.1-.9-2.4-1.6-.3-.6-.2-1.6.1-2.8l.3-1.1h7.1l-.5 2c-.1.6-.2 1 0 1.2.2.2.5.2 1 .2s.9-.1 1.2-.3c.4-.2.6-.5.7-1 .2-.9.2-1.5-.2-1.8-.4-.3-1.5-.8-3.2-1.5-1.8-.7-2.9-1.2-3.4-1.5-.6-.3-1-.8-1.2-1.3-.3-.6-.3-1.3-.1-2.1.3-1.3.9-2.2 1.6-2.7.8-.6 1.8-1.1 3.2-1.4 1.4-.3 3-.5 4.8-.5 2 0 3.7.2 5 .6 1.3.3 2.1.8 2.4 1.3.4.5.3 1.4 0 2.7l-.2.7z" class="b"/></g><g clip-path="url(#_clipPath_BfEjqS1EuW6BPM2k28eF6Z6AutsmjR85)"><path d="M134.5 19.4h-7.7l.8-2.8c.2-.8.3-1.3.1-1.5-.1-.2-.4-.3-1-.3s-1 .1-1.3.3c-.2.3-.4.8-.7 1.6l-2 7.5c-.2.8-.3 1.3-.2 1.6.2.2.5.3 1.1.3.6 0 1-.1 1.2-.3.3-.3.5-.8.7-1.7l.6-2.1h7.7l-.2.7c-.4 1.6-.9 2.8-1.6 3.5-.6.7-1.7 1.3-3.3 1.9-1.7.5-3.6.8-5.7.8-2.3 0-4.1-.3-5.5-.7-1.3-.5-2.1-1.1-2.4-1.9-.2-.7-.1-1.9.3-3.5l1.3-4.7c.3-1.2.6-2.1.9-2.7.3-.5.9-1.1 1.8-1.6.8-.6 1.9-1 3.3-1.3 1.4-.3 2.9-.5 4.6-.5 2.3 0 4.1.3 5.4.7 1.4.5 2.2 1.1 2.5 1.8.2.7.2 1.9-.3 3.4l-.4 1.5z" class="b"/></g><g clip-path="url(#_clipPath_sidXSx2XcyNKHQ0JBQ4yKPR7nllYfHFI)"><path d="M145.6 22.7c.1-1.8.4-4 .7-6.7-1.6 3.1-2.7 5.3-3.3 6.7h2.6zm6.9-10.3l.1 16.1h-7.9l.4-2.9h-2.8l-1.2 2.9h-8l8.3-16.1h11.1z" class="b"/></g><g clip-path="url(#_clipPath_tjJGJzcMJ3hv2n5q44LqUzxLmIFJ1tZd)"><path d="M165.2 15.1l-.9 3.6c.8 0 1.5-.1 1.8-.2.4-.1.7-.5.9-1.2l.2-.9c.2-.6.1-.9-.2-1-.3-.2-.9-.3-1.8-.3zm-6.9-2.7h5.4c3.7 0 6.1 0 7.4.2 1.2.1 2.2.5 2.8 1.1.6.7.8 1.7.4 3.1-.3 1.2-.9 2.1-1.5 2.5-.7.4-1.9.7-3.6.8 1.4.2 2.4.5 2.8.8.4.3.7.7.7 1 .1.2-.1 1-.4 2.3l-1.2 4.3H164l1.4-5.4c.2-.8.3-1.4.1-1.6-.2-.2-.9-.3-1.9-.3l-2 7.3h-7.7l4.4-16.1z" class="b"/></g><g clip-path="url(#_clipPath_Fz7XOVEIFOuGIGnEJBsC45jm0xXNhanF)"><path d="M201.2 19.4h-7.7l.8-2.8c.2-.9.2-1.4.1-1.6-.1-.2-.4-.3-1-.3s-1.1.2-1.3.4c-.2.3-.5.8-.7 1.6l-2 7.5c-.2.8-.3 1.3-.2 1.5.1.3.5.4 1.1.4.6 0 1-.1 1.2-.4.2-.2.5-.8.7-1.7l.6-2h7.7l-.2.6c-.4 1.7-1 2.9-1.6 3.6-.6.7-1.7 1.3-3.4 1.8-1.6.6-3.5.8-5.7.8s-4-.2-5.4-.6c-1.3-.5-2.1-1.1-2.4-1.9-.3-.8-.2-2 .3-3.5l1.2-4.8c.3-1.1.7-2 1-2.6.3-.6.9-1.1 1.7-1.7.9-.5 2-.9 3.4-1.2 1.4-.3 2.9-.5 4.6-.5 2.2 0 4 .2 5.4.7 1.3.5 2.2 1.1 2.4 1.8.3.7.2 1.8-.2 3.3l-.4 1.6z" class="b"/></g><g clip-path="url(#_clipPath_zgZI9004zQWa80aRg0cIQIMyAh9xlQFb)"><path d="M212.3 22.7c.1-1.8.3-4.1.7-6.8-1.6 3.1-2.7 5.4-3.3 6.8h2.6zm6.9-10.4l.1 16.2h-7.9l.3-2.9H209l-1.3 2.9h-7.9l8.3-16.2h11.1z" class="b"/></g><g clip-path="url(#_clipPath_YcDzBAQzTG4mVlANQBHkmsN69eJfPPqM)"><path d="M231.9 15.1l-1 3.6c.9 0 1.5-.1 1.9-.2.4-.1.7-.6.9-1.3l.2-.9c.2-.5.1-.8-.2-1-.3-.1-.9-.2-1.8-.2zm-7-2.8h5.5c3.6 0 6.1.1 7.3.3 1.3.1 2.2.5 2.9 1.1.6.7.8 1.7.4 3s-.9 2.1-1.6 2.6c-.7.4-1.9.7-3.6.7 1.5.3 2.5.5 2.9.9.4.3.7.6.7.9.1.3-.1 1.1-.4 2.4l-1.2 4.3h-7.2l1.5-5.4c.2-.9.2-1.4 0-1.6-.2-.2-.8-.3-1.8-.3l-2 7.3h-7.7l4.3-16.2z" class="b"/></g><g clip-path="url(#_clipPath_XHzoy2GMSrZXbPowj3iirJ6hD6WZnxsc)"><path d="M245.2 12.3H258l-.8 3.2H252l-.8 3.1h4.8l-.8 3.1h-4.9l-.9 3.5h5.6l-.8 3.3h-13.4l4.4-16.2z" class="b"/></g><g clip-path="url(#_clipPath_GJkZxPnnsJTkFQ94lo0AoiObSOvu37E6)"><path d="M9.5 41.4c.3-1.7.8-3.9 1.3-6.4-1.3 2.9-2.3 5-2.8 6.4h1.5zm5.3-9.8l-2.1 15.3H8.2l.6-2.8H7.3l-1.1 2.8H1.7l6.8-15.4 6.3.1z" class="c"/></g><g clip-path="url(#_clipPath_Nxw6OAC4TYCgUfnuOTVG3rGDukFcjxYQ)"><path d="M27.9 31.6l-3.1 10.3c-.3 1.1-.6 1.9-.8 2.4-.2.5-.6 1-1.2 1.5-.5.4-1.2.8-1.9 1.1-.8.2-1.6.4-2.5.3-1 0-1.8-.1-2.5-.4-.7-.3-1.1-.7-1.4-1.2-.2-.5-.3-1-.2-1.5.1-.6.4-1.7.9-3.5l2.8-9h4.3l-3.4 11.5c-.2.7-.3 1.1-.3 1.3 0 .2.2.2.4.3.3 0 .5-.1.6-.4.2-.2.3-.6.6-1.4l3.4-11.3h4.3z" class="c"/></g><g clip-path="url(#_clipPath_4mOM4Q3lNMKcqLwlQsKHEmkEAAJcBs1d)"><path d="M38.4 31.7l-.9 3h-2.6L31.2 47h-4.4l3.7-12.3h-2.6l1-3.1 9.5.1z" class="c"/></g><g clip-path="url(#_clipPath_Ts6Wp698m7PXLqRFZojUiQx2Pbp1xYPD)"><path d="M43.8 35.6c.2-.7.3-1.1.3-1.3-.1-.2-.2-.3-.5-.3-.2 0-.4.1-.6.2-.1.2-.3.6-.6 1.4l-2.1 7.2c-.3.9-.4 1.4-.4 1.6 0 .2.2.3.5.3s.5-.1.6-.3c.2-.3.4-.8.7-1.7l2.1-7.1zm2.8 5.1c-.4 1.5-.8 2.6-1.1 3.3-.2.6-.7 1.2-1.2 1.7-.6.5-1.3.9-2.1 1.2-.8.3-1.7.4-2.6.4-.9 0-1.7-.1-2.3-.4-.6-.2-1.1-.6-1.4-1.2-.2-.5-.3-1.1-.2-1.7.1-.7.4-1.8.9-3.4l.7-2.6c.5-1.5.9-2.6 1.1-3.2.3-.7.7-1.3 1.3-1.8.6-.5 1.3-.9 2.1-1.2.8-.3 1.6-.4 2.6-.4.9 0 1.6.1 2.3.4.6.3 1.1.7 1.3 1.2.3.5.4 1.1.3 1.8-.1.6-.4 1.7-.9 3.3l-.8 2.6z" class="c"/></g><g clip-path="url(#_clipPath_c3CClxavmFPiLIYUQYoSW9TigKH9Z2RD)"><path d="M64.4 31.8l-4.6 15.3H56l3.1-10.4-4.6 10.4h-2.7L53.2 37l-3 10.1-3.9-.1 4.6-15.3 5.7.1c-.1.9-.3 2-.5 3.2l-.5 3.9 3.1-7.1h5.7z" class="c"/></g><g clip-path="url(#_clipPath_4ygvemNy36XESasOfJzZNxFvcmQVlLqZ)"><path d="M70.5 35.8c.2-.8.3-1.2.3-1.4 0-.2-.2-.3-.4-.3-.3 0-.5.1-.6.2-.2.2-.4.7-.6 1.5L67 42.9c-.2.9-.4 1.4-.3 1.7 0 .2.1.3.4.3.3 0 .5-.2.7-.4.1-.2.4-.8.6-1.7l2.1-7zm2.9 5c-.5 1.6-.8 2.6-1.1 3.3-.3.6-.7 1.2-1.3 1.7-.6.6-1.3 1-2 1.2-.8.3-1.7.5-2.7.5-.9 0-1.6-.2-2.2-.5-.7-.2-1.1-.6-1.4-1.2-.3-.5-.4-1.1-.3-1.7.1-.7.4-1.8.9-3.3l.8-2.7c.5-1.5.8-2.6 1.1-3.2.3-.7.7-1.2 1.3-1.8.5-.5 1.2-.9 2-1.2.8-.3 1.7-.4 2.6-.4.9 0 1.7.1 2.3.4.7.3 1.1.7 1.4 1.2.3.6.3 1.1.2 1.8-.1.6-.4 1.7-.8 3.3l-.8 2.6z" class="c"/></g><g clip-path="url(#_clipPath_0iDOoOBfkosT63YJOWOgxqZTi42UVdYW)"><path d="M86.5 31.9l-1 3.1-2.5-.1-3.7 12.3h-4.4l3.7-12.3H76l.9-3.1 9.6.1z" class="c"/></g><g clip-path="url(#_clipPath_Uw1eR2qXtzKVfQz2uZtJpHSrHm2GmKTy)"><path d="M91.8 31.9l-4.6 15.3h-4.3l4.6-15.3h4.3z" class="c"/></g><g clip-path="url(#_clipPath_CnuCIfdzcdPEonKfFnjYwRTrKCf0hKGW)"><path d="M103.9 32l-6.8 15.3-6.6-.1 2.1-15.3h4.6c-.8 4.3-1.5 7.8-2.1 10.7 1.1-2.9 2.1-5.5 3.1-7.8l1.1-2.9 4.6.1z" class="c"/></g><g clip-path="url(#_clipPath_N2NmoNJ5VuE2Zas4BuUFD8EoCuk9M1v6)"><path d="M104.6 32h7.3l-.9 3.1h-2.9l-.9 2.9h2.7l-.8 2.9h-2.8l-1 3.3 3.2.1-.9 3h-7.5l4.5-15.3z" class="c"/></g><g clip-path="url(#_clipPath_jjFPY2iom4cIJjamImfl2YJ9ftde6qq6)"><path d="M120.7 34.7l-3 10c.7 0 1.1-.1 1.3-.3.2-.2.5-.9.8-1.9l1.8-5.9c.2-.7.3-1.2.3-1.4 0-.2-.1-.3-.2-.4-.2-.1-.5-.1-1-.1zm-3.5-2.7h3.2c2.1 0 3.5.1 4.2.3.7.2 1.2.5 1.5.9.2.4.3.9.3 1.4-.1.4-.3 1.4-.8 2.9l-1.6 5.3c-.4 1.4-.7 2.3-1 2.8-.3.5-.6.8-1.1 1.1-.4.2-.9.4-1.4.5-.6.1-1.4.2-2.4.2l-5.5-.1 4.6-15.3z" class="c"/></g><g clip-path="url(#_clipPath_F30FJSIAM8Z9mxmYfXxBxgdLyzQhw7dL)"><path d="M128.9 32.1h7.2l-.9 3.1h-2.9l-.8 2.9h2.7l-.9 2.9h-2.7l-1 3.3 3.2.1-1 3h-7.5l4.6-15.3z" class="c"/></g><g clip-path="url(#_clipPath_8IKrfBEZ6ohOMkLZsyJzryBiyIQwWX2i)"><path d="M146.2 32.1l-.9 3.1h-2.6L139 47.5l-4.4-.1 3.7-12.2h-2.6l1-3.1h9.5z" class="c"/></g><g clip-path="url(#_clipPath_U51aeqWka0Z1ijEYEo8PqRIxbVvLO7ES)"><path d="M148.6 42c.3-1.7.7-3.9 1.3-6.4-1.4 2.9-2.3 5.1-2.8 6.4h1.5zm5.3-9.8l-2.2 15.3h-4.4l.6-2.8h-1.6l-1.1 2.8h-4.5l6.9-15.3h6.3z" class="c"/></g><g clip-path="url(#_clipPath_zhVVuJNnD5u28wH1BqmqrRw3x487b4hl)"><path d="M161.4 32.2l-4.6 15.3h-4.3l4.6-15.3h4.3z" class="c"/></g><g clip-path="url(#_clipPath_Iq6PM2zuWjANgl5Bxw1eN2XvHac0HFjj)"><path d="M167.5 32.2l-3.6 12.3h2.6l-.9 3.1-7-.1 4.6-15.3h4.3z" class="c"/></g><g clip-path="url(#_clipPath_bpFSV6drr0fZvQUkUMQ7gc6zRjVxRnWu)"><path d="M175.6 32.3L171 47.6h-4.4l4.6-15.3h4.4z" class="c"/></g><g clip-path="url(#_clipPath_olUjDtbqmlL6VZ7XCBioEUV4eHde81Eq)"><path d="M187.1 32.3l-4.6 15.4-3.8-.1-.2-6.9-2.1 6.9h-3.6l4.5-15.3h3.7l.4 6.9 2-6.9h3.7z" class="c"/></g><g clip-path="url(#_clipPath_Hdxs7TxbS0G7nuaLY1gVFCiz5HSEfTy5)"><path d="M197.1 38h-4.3l.4-1.4c.2-.9.4-1.4.3-1.6 0-.3-.1-.4-.4-.4-.3 0-.5.1-.7.3-.1.2-.3.7-.6 1.5l-2.2 7.3c-.2.7-.3 1.2-.2 1.4 0 .2.2.3.5.3s.5-.1.7-.4c.2-.2.4-.7.6-1.4l.6-1.8h-.9l.7-2.3h5.1l-2.5 8.2h-2.7l-.1-1.1c-.4.5-.9.8-1.4 1.1-.6.2-1.1.3-1.7.3-.8 0-1.4-.2-2-.5-.5-.3-.9-.7-1-1.2-.2-.5-.3-1-.2-1.5.1-.5.3-1.3.6-2.4l1.3-4.5c.5-1.5.9-2.6 1.3-3.2.3-.7 1-1.3 2-1.8 1-.6 2.1-.9 3.4-.9 1.3 0 2.3.3 3 .8.7.5 1 1 1.1 1.7 0 .6-.1 1.6-.5 2.9l-.2.6z" class="c"/></g></g></svg>